<svg width="28" height="26" viewBox="0 0 28 26" fill="none" xmlns="http://www.w3.org/2000/svg">
<g clip-path="url(#clip0_54_1994)">
<path fill-rule="evenodd" clip-rule="evenodd" d="M19 4.5C19.7956 4.5 20.5587 4.81607 21.1213 5.37868C21.6839 5.94129 22 6.70435 22 7.5V17.5C22 18.2956 21.6839 19.0587 21.1213 19.6213C20.5587 20.1839 19.7956 20.5 19 20.5H7.333L4 23C3.176 23.618 2 23.03 2 22V7.5C2 6.70435 2.31607 5.94129 2.87868 5.37868C3.44129 4.81607 4.20435 4.5 5 4.5H19ZM11 13.5H8C7.73478 13.5 7.48043 13.6054 7.29289 13.7929C7.10536 13.9804 7 14.2348 7 14.5C7 14.7652 7.10536 15.0196 7.29289 15.2071C7.48043 15.3946 7.73478 15.5 8 15.5H11C11.2652 15.5 11.5196 15.3946 11.7071 15.2071C11.8946 15.0196 12 14.7652 12 14.5C12 14.2348 11.8946 13.9804 11.7071 13.7929C11.5196 13.6054 11.2652 13.5 11 13.5ZM16 9.5H8C7.74512 9.50028 7.49997 9.59788 7.31463 9.77285C7.1293 9.94782 7.01777 10.187 7.00283 10.4414C6.98789 10.6958 7.07067 10.9464 7.23426 11.1418C7.39786 11.3373 7.6299 11.4629 7.883 11.493L8 11.5H16C16.2549 11.4997 16.5 11.4021 16.6854 11.2272C16.8707 11.0522 16.9822 10.813 16.9972 10.5586C17.0121 10.3042 16.9293 10.0536 16.7657 9.85817C16.6021 9.66271 16.3701 9.5371 16.117 9.507L16 9.5Z" fill="#2B70E4"/>
</g>
<circle cx="24" cy="4.5" r="4" fill="#2B70E4"/>
<defs>
<clipPath id="clip0_54_1994">
<rect width="24" height="24" fill="white" transform="translate(0 1.5)"/>
</clipPath>
</defs>
</svg>
