<svg width="21" height="21" viewBox="0 0 21 21" fill="none" xmlns="http://www.w3.org/2000/svg">
<path d="M16.1855 5.78662H7.51367C6.28398 5.78662 5.28711 6.78349 5.28711 8.01318V16.6851C5.28711 17.9148 6.28398 18.9116 7.51367 18.9116H16.1855C17.4152 18.9116 18.4121 17.9148 18.4121 16.6851V8.01318C18.4121 6.78349 17.4152 5.78662 16.1855 5.78662Z" stroke="#6C6F7D" stroke-width="2" stroke-linejoin="round"/>
<path d="M15.2676 5.78662L15.2871 4.84912C15.2855 4.26947 15.0545 3.71403 14.6446 3.30415C14.2347 2.89427 13.6793 2.66327 13.0996 2.66162H4.66211C3.99967 2.66358 3.36492 2.9276 2.89651 3.39602C2.42809 3.86443 2.16407 4.49918 2.16211 5.16162V13.5991C2.16376 14.1788 2.39476 14.7342 2.80463 15.1441C3.21451 15.554 3.76996 15.785 4.34961 15.7866H5.28711" stroke="#6C6F7D" stroke-width="2" stroke-linecap="round" stroke-linejoin="round"/>
</svg>
