<svg width="24" height="24" viewBox="0 0 24 24" fill="none" xmlns="http://www.w3.org/2000/svg">
<g clip-path="url(#clip0_54_2482)">
<path d="M0 2C0 0.895429 0.89543 0 2 0H9.377C10.4816 0 11.377 0.89543 11.377 2V9.372C11.377 10.4766 10.4816 11.372 9.377 11.372H2C0.895428 11.372 0 10.4766 0 9.372V2ZM12.623 2C12.623 0.895429 13.5184 0 14.623 0H22C23.1046 0 24 0.89543 24 2V9.372C24 10.4766 23.1046 11.372 22 11.372H14.623C13.5184 11.372 12.623 10.4766 12.623 9.372V2ZM0 14.623C0 13.5184 0.89543 12.623 2 12.623H9.377C10.4816 12.623 11.377 13.5184 11.377 14.623V22C11.377 23.1046 10.4816 24 9.377 24H2C0.895428 24 0 23.1046 0 22V14.623ZM12.623 12.623H22C23.1046 12.623 24 13.5184 24 14.623V22C24 23.1046 23.1046 24 22 24H12.623" fill="#2B70E4"/>
</g>
<defs>
<clipPath id="clip0_54_2482">
<rect width="24" height="24" rx="5" fill="white"/>
</clipPath>
</defs>
</svg>
