<svg width="26" height="32" viewBox="0 0 26 32" fill="none" xmlns="http://www.w3.org/2000/svg">
<path fill-rule="evenodd" clip-rule="evenodd" d="M2.9179 8.98956C1.25683 11.4349 0.540997 14.4005 0.903683 17.3343C1.26637 20.2681 2.68285 22.9702 4.88942 24.9374C5.02753 25.0601 5.18847 25.1544 5.36302 25.2149C5.53758 25.2754 5.72235 25.3009 5.90677 25.29C6.09119 25.2791 6.27166 25.2319 6.43787 25.1513C6.60408 25.0706 6.75278 24.958 6.87547 24.8199C6.99816 24.6818 7.09245 24.5209 7.15295 24.3463C7.21344 24.1717 7.23897 23.987 7.22806 23.8026C7.21715 23.6181 7.17003 23.4377 7.08937 23.2715C7.00872 23.1052 6.89612 22.9566 6.758 22.8339C5.44774 21.6638 4.49251 20.1492 4.00113 18.4627C3.50976 16.7762 3.50202 14.9855 3.97879 13.2948C4.45556 11.6041 5.39766 10.0813 6.69775 8.89998C7.99784 7.71864 9.60363 6.92625 11.3321 6.6131L9.94144 8.66044C9.73188 8.96896 9.65345 9.34808 9.72342 9.71442C9.79339 10.0808 10.006 10.4043 10.3145 10.6139C10.6231 10.8234 11.0022 10.9019 11.3685 10.8319C11.7349 10.7619 12.0584 10.5493 12.268 10.2408L15.4286 5.58773C15.6382 5.27921 15.7166 4.90009 15.6467 4.53375C15.5767 4.16741 15.3641 3.84387 15.0555 3.6343L10.4025 0.473636C10.094 0.264071 9.71485 0.185647 9.34851 0.255616C8.98217 0.325585 8.65863 0.538214 8.44907 0.84673C8.2395 1.15525 8.16108 1.53438 8.23105 1.90071C8.30102 2.26705 8.51365 2.59059 8.82216 2.80016L10.4662 3.91693C7.38832 4.56686 4.68245 6.38526 2.9179 8.98956ZM17.5499 30.8286C17.3404 31.1371 17.0168 31.3498 16.6505 31.4197C16.2841 31.4897 15.905 31.4113 15.5965 31.2017L10.9435 28.041C10.6349 27.8315 10.4223 27.5079 10.3523 27.1416C10.2824 26.7753 10.3608 26.3961 10.5704 26.0876L13.731 21.4346C13.9406 21.126 14.2641 20.9134 14.6305 20.8434C14.9968 20.7735 15.3759 20.8519 15.6845 21.0615C15.993 21.271 16.2056 21.5946 16.2756 21.9609C16.3455 22.3272 16.2671 22.7064 16.0575 23.0149L14.6669 25.0622C16.3958 24.7495 18.0021 23.9572 19.3026 22.7758C20.6031 21.5944 21.5455 20.0714 22.0224 18.3804C22.4994 16.6894 22.4916 14.8984 22 13.2116C21.5084 11.5247 20.5528 10.01 19.242 8.83992C19.0991 8.71872 18.9819 8.57017 18.8972 8.403C18.8125 8.23584 18.762 8.05343 18.7488 7.86649C18.7356 7.67956 18.7599 7.49187 18.8203 7.31446C18.8806 7.13705 18.9758 6.97349 19.1003 6.8334C19.2248 6.69331 19.376 6.5795 19.5451 6.49868C19.7141 6.41786 19.8977 6.37164 20.0849 6.36275C20.272 6.35386 20.4591 6.38247 20.6351 6.4469C20.8111 6.51133 20.9724 6.61029 21.1096 6.73796C22.7913 8.23717 24.0247 10.1732 24.6727 12.3309C25.3207 14.4887 25.358 16.7839 24.7804 18.9616C24.2028 21.1393 23.033 23.1143 21.4008 24.6674C19.7687 26.2204 17.738 27.2907 15.5343 27.7595L17.1768 28.8752C17.4853 29.0847 17.698 29.4083 17.7679 29.7746C17.8379 30.141 17.7595 30.5201 17.5499 30.8286Z" fill="#49A0FA"/>
</svg>
